<svg width="183" height="119" fill="none" xmlns="http://www.w3.org/2000/svg">
  <path d="M66.6 54.8V25.88l29.11 29.1-17.09 10.36M182.2 40.21S187.24 14.5 159 14.5V40.2h23.2z" fill="#231F20"/>
  <path d="M62.55 39.82a31.28 31.28 0 0 0-62.55 0v.09a79.89 79.89 0 0 0 159.77-.1H62.55z" fill="#231F20"/>
  <path d="M62.53 44.25a33.45 33.45 0 0 0 66.9 0" fill="#E8CF00"/>
  <path d="M72 44c.1 8.8 3.16 17.19 8.5 23.36C85.82 73.54 93 77 100.5 77s14.67-3.46 20-9.64c5.34-6.17 8.4-14.56 8.5-23.36M18.65 31.4a1.93 1.93 0 1 0 3.85 0 1.93 1.93 0 0 0-3.85 0z" fill="#fff"/>
  <path d="M31.28.97L22.34 9.9l8.94 8.94 8.94-8.94L31.28.97z" fill="#E8CF00"/>
  <path d="M73.82 77.7V48.75l29.1 29.12-17.07 10.35" fill="#231F20"/>
</svg>
