<svg width="1440" height="463" fill="none" xmlns="http://www.w3.org/2000/svg">
  <path d="M693 463.38V243.76h20.57l48.33-137.5 33.94 79.82L867.54 0l56.86 117.08 31.87-80.42 77.53 199.07 38.67-92.85 43.19 92.85 82.27-132.12 62.24 132.12 43.01-64.94 35.95 50.04 53.17-96.67 41.42 119.6H1454v219.62M693 463.26V228.73L664.15 125.7l-48.1 118.62-36.72-66.09-25.99 57.08-27.98-59.02-26 74.02-26.43-41.72-20.05 33.67-117.02-110.9-113.34 67.34-53.02-73-66.69 87.08-27.75-61.36-33.93 61.36-13.88-36.49-18.5 22.4-16.96-40.27-18.54 70.31H-37v234.53" fill="#EEF5F8"/>
</svg>
