<svg width="1439" height="861" fill="none" xmlns="http://www.w3.org/2000/svg">
  <path fill-rule="evenodd" clip-rule="evenodd" d="M1439 24.71V0c-6.99 17.03-18.13 28.64-34.04 28.64s-26.05-11.6-33.05-28.64h-.49c-6.99 17.03-17.31 28.64-33.22 28.64-7.55 0-14.95-2.66-21.42-7.7-6.47-5.05-11.75-12.29-15.29-20.94h-.51c-3.54 8.65-8.82 15.89-15.29 20.94-6.47 5.04-13.87 7.7-21.42 7.7-7.54 0-14.93-2.68-21.38-7.73-6.46-5.04-11.74-12.27-15.28-20.91h-.8c-3.52 8.62-8.78 15.83-15.22 20.88-6.43 5.04-13.8 7.72-21.32 7.76-7.51-.04-14.88-2.72-21.32-7.76-6.43-5.05-11.69-12.26-15.22-20.88h-.8c-3.53 8.62-8.79 15.83-15.22 20.88-6.44 5.04-13.81 7.73-21.32 7.76-7.54 0-14.94-2.67-21.4-7.72-6.46-5.04-11.74-12.28-15.27-20.92h-.8c-3.53 8.62-8.79 15.83-15.22 20.88-6.44 5.04-13.81 7.72-21.32 7.76-7.51-.03-14.87-2.69-21.3-7.71-6.43-5.02-11.69-12.2-15.23-20.8V.8l-.36-.79h-.5c-3.54 8.65-8.82 15.89-15.29 20.93-6.47 5.05-13.87 7.71-21.41 7.71-7.55 0-14.95-2.66-21.42-7.7-6.47-5.05-11.75-12.29-15.3-20.94h-.5c-3.54 8.65-8.83 15.89-15.3 20.93-6.46 5.05-13.87 7.71-21.41 7.71-7.55.01-14.96-2.65-21.43-7.7-6.47-5.05-11.77-12.28-15.3-20.94h-.51c-3.54 8.65-8.83 15.89-15.3 20.93-6.47 5.05-13.87 7.71-21.42 7.71-7.53 0-14.93-2.67-21.4-7.72-6.46-5.04-11.74-12.27-15.27-20.92h-.52c-6.99 17.03-16.32 28.64-32.24 28.64-15.17 0-24.1-10.49-30.97-26.16V0l-.53 1.26L719 .13v2.2c-7.03 15.76-17.87 26.31-33.04 26.31-15.9 0-26.05-11.6-33.05-28.64h-.5c-6.98 17.03-17.3 28.64-33.21 28.64-7.55 0-14.95-2.66-21.42-7.7-6.46-5.05-11.75-12.29-15.3-20.94h-.5c-3.54 8.65-8.82 15.89-15.3 20.94-6.46 5.04-13.86 7.7-21.41 7.7-7.54 0-14.93-2.68-21.38-7.73C517.42 15.87 512.14 8.64 508.6 0h-.8c-3.52 8.62-8.78 15.83-15.22 20.88-6.43 5.04-13.8 7.72-21.32 7.76-7.51-.04-14.88-2.72-21.32-7.76-6.43-5.05-11.7-12.26-15.22-20.88h-.8c-3.53 8.62-8.79 15.83-15.22 20.88-6.44 5.04-13.8 7.73-21.32 7.76-7.54 0-14.94-2.67-21.4-7.72-6.45-5.04-11.74-12.28-15.27-20.92h-.8c-3.53 8.62-8.79 15.83-15.22 20.88-6.44 5.04-13.8 7.72-21.32 7.76-7.5-.03-14.87-2.69-21.3-7.71-6.43-5.02-11.7-12.2-15.23-20.8V.8l-.36-.79h-.5c-3.54 8.65-8.82 15.89-15.29 20.93-6.47 5.05-13.87 7.71-21.41 7.71-7.55 0-14.95-2.66-21.42-7.7-6.47-5.05-11.75-12.29-15.3-20.94h-.5c-3.54 8.65-8.83 15.89-15.3 20.93-6.46 5.05-13.87 7.71-21.41 7.71-7.55.01-14.96-2.65-21.43-7.7-6.47-5.05-11.77-12.28-15.3-20.94h-.51c-3.54 8.65-8.83 15.89-15.3 20.93-6.46 5.05-13.87 7.71-21.41 7.71-7.55 0-14.94-2.67-21.4-7.72C73.54 15.88 68.26 8.65 64.73 0h-.52C57.22 17.03 47.9 28.64 31.97 28.64 16.06 28.64 7.01 17.1 0 .14V861h1440V59h-1V24.71z" fill="#E6F3FA"/>
</svg>
