<svg width="1439" height="861" fill="none" xmlns="http://www.w3.org/2000/svg">
  <path fill-rule="evenodd" clip-rule="evenodd" d="M725.02.28l-4.24-.1C718.26.1 715.73.05 715.7 0h-10.26c-6.75 16.54-16.05 27.82-31.42 27.82-15.37 0-26.6-11.28-33.35-27.82h-.47c-6.75 16.54-21.93 27.82-37.3 27.82-15.35 0-23.2-11.28-29.95-27.82h-.48c-3.42 8.4-8.52 15.43-14.77 20.33-6.24 4.9-13.4 7.5-20.68 7.49-7.27-.01-14.4-2.6-20.64-7.5S505.06 8.38 501.64 0h-.77c-3.4 8.37-8.48 15.38-14.7 20.28-6.2 4.9-13.32 7.5-20.58 7.54-7.27-.02-14.4-2.62-20.63-7.51-6.23-4.9-11.33-11.92-14.74-20.31h-.77c-3.4 8.37-8.48 15.38-14.7 20.28-6.2 4.9-13.32 7.5-20.58 7.54-7.26-.03-14.38-2.63-20.6-7.53-6.22-4.9-11.3-11.91-14.71-20.29h-.78c-3.4 8.37-8.48 15.38-14.7 20.28-6.2 4.9-13.32 7.5-20.58 7.54-7.24-.03-14.35-2.62-20.56-7.5-6.2-4.87-11.29-11.85-14.7-20.19v.63l-.35-.76h-.48c-3.42 8.4-8.52 15.43-14.76 20.33-6.25 4.9-13.4 7.49-20.68 7.49-7.28 0-14.43-2.59-20.68-7.49-6.24-4.9-11.34-11.93-14.76-20.33h-.49c-3.42 8.4-8.52 15.43-14.77 20.33-6.24 4.9-13.39 7.49-20.67 7.49-7.3 0-14.44-2.58-20.7-7.48-6.24-4.9-11.35-11.93-14.77-20.34h-.49c-3.41 8.4-8.51 15.42-14.75 20.32-6.25 4.9-13.39 7.5-20.67 7.5-7.28 0-14.43-2.59-20.67-7.5C81.6 15.43 76.5 8.4 73.09 0h-.5C65.84 16.54 56.6 27.82 41.24 27.82 25.9 27.82 17.64 16.6 10.82.13L0 0v861h1440V.35c0-.06-2.47-.12-4.93-.18a83.12 83.12 0 0 1-4.94-.17h-9.97c-6.75 16.54-17.51 27.82-32.87 27.82-15.36 0-25.15-11.28-31.91-27.82h-.47c-6.75 16.54-16.72 27.82-32.07 27.82-7.29 0-14.44-2.59-20.68-7.49-6.25-4.9-11.35-11.93-14.77-20.33h-.48c-3.42 8.4-8.53 15.43-14.77 20.33-6.25 4.9-13.39 7.5-20.68 7.49-7.28-.01-14.41-2.6-20.65-7.5-6.23-4.9-11.33-11.93-14.74-20.32h-.77c-3.41 8.37-8.49 15.38-14.7 20.28-6.21 4.9-13.33 7.5-20.58 7.54-7.26-.04-14.37-2.65-20.59-7.54-6.21-4.9-11.29-11.91-14.69-20.28h-.78c-3.4 8.37-8.48 15.38-14.69 20.28-6.21 4.9-13.33 7.5-20.59 7.54-7.27 0-14.41-2.6-20.65-7.5-6.24-4.9-11.33-11.92-14.75-20.32h-.77c-3.4 8.37-8.48 15.38-14.7 20.28-6.21 4.9-13.32 7.5-20.58 7.54-7.24-.03-14.35-2.62-20.56-7.5-6.21-4.87-11.29-11.85-14.71-20.19v.63l-.34-.76h-.49c-3.41 8.4-8.51 15.43-14.76 20.33-6.24 4.9-13.39 7.49-20.67 7.49-7.29 0-14.43-2.59-20.68-7.49-6.24-4.9-11.35-11.93-14.77-20.33h-.48c-3.42 8.4-8.52 15.43-14.77 20.33-6.24 4.9-13.4 7.49-20.68 7.49-7.29 0-14.44-2.58-20.69-7.48-6.25-4.9-11.35-11.93-14.77-20.34h-.49c-3.42 8.4-8.52 15.43-14.77 20.33-6.24 4.9-13.39 7.49-20.68 7.49-7.27 0-14.42-2.6-20.65-7.5C796.02 15.42 790.92 8.4 787.5 0h-.5c-6.74 16.54-15.75 27.82-31.12 27.82-14.75 0-23.38-10.33-30.04-25.73V.35c0-.02-.29-.04-.76-.06l-.07-.16v.15z" fill="#E6F3FA"/>
</svg>
