<svg width="380" height="398" fill="none" xmlns="http://www.w3.org/2000/svg">
  <g filter="url(#filter0_d)">
    <path d="M1.07 324.05v58.67L14.47 394l11.96-8.12L38.4 394l12.7-9.7 12.7 9.7 12.82-10.06v-59.89" fill="#956729"/>
    <path d="M157.18 168.45C70.92 168.45 1 238.38 1 324.63h156.18" fill="#956729"/>
    <path d="M374.54 324.63V172.87a109.41 109.41 0 1 0-218.83 0v151.76" fill="#956729"/>
    <path d="M337.31 174.31V74.18a72.18 72.18 0 1 0-144.37 0v100.13" fill="#956729"/>
    <path d="M259.07 324.63a99.29 99.29 0 0 1-99.3-99.29v99.3h99.3z" fill="#231F20"/>
    <path d="M76.24 324.63a83.74 83.74 0 0 0 83.74-83.74v83.74H76.24z" fill="#231F20"/>
    <path d="M214.84 153.12a53.57 53.57 0 0 0 107.13 0M247.5 66.6a18.76 18.76 0 1 1 37.53 0M196.77 153.59a71.64 71.64 0 1 0 143.28 0" stroke="#231F20" stroke-width="1.07"/>
    <path d="M241.41 126.56a24.62 24.62 0 1 0 49.25 0 24.62 24.62 0 0 0-49.25 0z" fill="#B7833E"/>
    <path d="M226.54 120.59l13.65 123.69 13.64-123.7-13.64-.14-13.65.15z" fill="#fff"/>
    <path d="M255.93 69.84a3.59 3.59 0 0 1 4.53-5.04 3.6 3.6 0 0 1 2 2.05c.82 1.8-.81 6.8-.81 6.8s-4.88-2-5.72-3.8z" fill="#231F20"/>
    <path d="M211.26 99.41a28.21 28.21 0 1 0 56.43 0 28.21 28.21 0 0 0-56.43 0z" fill="#D79C4C"/>
    <path d="M238.5 137.76V117.3M220.87 99.67h-20.48M226.03 87.2l-14.47-14.48M226.03 112.13l-14.47 14.48" stroke="#231F20" stroke-width="1.07"/>
    <path d="M232.96 97.5a1.73 1.73 0 1 0 3.46 0 1.73 1.73 0 0 0-3.46 0zM240.3 97.5a1.73 1.73 0 1 0 3.46 0 1.73 1.73 0 0 0-3.46 0zM236.66 101.17a1.73 1.73 0 0 0 3.43.34 1.73 1.73 0 1 0-3.43-.34zM225.61 44.26a3.89 3.89 0 1 0 7.78-.03 3.89 3.89 0 0 0-7.78.03z" fill="#231F20"/>
    <path d="M231.02 42.75a1.74 1.74 0 1 0 3.49.02 1.74 1.74 0 0 0-3.49-.02zM305.2 120.59l-13.65 123.69-13.64-123.7 13.64-.14 13.64.15z" fill="#fff"/>
    <path d="M275.8 69.84a3.59 3.59 0 1 0-6.53-3c-.81 1.81.82 6.81.82 6.81s4.88-2 5.71-3.8z" fill="#231F20"/>
    <path d="M320.5 99.75a28.21 28.21 0 1 0-56.43-.66 28.21 28.21 0 0 0 56.42.66z" fill="#D79C4C"/>
    <path d="M293.24 137.76V117.3M310.87 99.67h20.47M305.7 87.2l14.48-14.48M305.7 112.13l14.48 14.48" stroke="#231F20" stroke-width="1.07"/>
    <path d="M298.75 97.5a1.73 1.73 0 1 1-3.47 0 1.73 1.73 0 0 1 3.47 0zM291.4 97.5a1.73 1.73 0 1 1-3.46 0 1.73 1.73 0 0 1 3.46 0zM295.07 101.17a1.74 1.74 0 0 1-2.07 1.7 1.73 1.73 0 0 1-.61-3.14 1.73 1.73 0 0 1 2.68 1.44zM306.1 44.26a3.89 3.89 0 1 1-7.78-.03 3.89 3.89 0 0 1 7.78.03z" fill="#231F20"/>
    <path d="M300.68 42.75a1.74 1.74 0 0 1-3.46.35 1.75 1.75 0 1 1 3.46-.35z" fill="#fff"/>
    <path d="M266.25 54.63V19.2" stroke="#231F20" stroke-width="1.07"/>
    <path d="M191.12 324.29a26.67 26.67 0 0 0-53.33-.1v19.68l9.45 20.81 8.43-18.58 8.45 18.58 8.97-19.7 8.98 19.7 8.99-20 .06-20.4z" fill="#956729"/>
  </g>
  <defs>
    <filter id="filter0_d" x="0" y="0" width="379.54" height="398" filterUnits="userSpaceOnUse" color-interpolation-filters="sRGB">
      <feFlood flood-opacity="0" result="BackgroundImageFix"/>
      <feColorMatrix in="SourceAlpha" values="0 0 0 0 0 0 0 0 0 0 0 0 0 0 0 0 0 0 127 0"/>
      <feOffset dx="2" dy="1"/>
      <feGaussianBlur stdDeviation="1.5"/>
      <feColorMatrix values="0 0 0 0 0 0 0 0 0 0 0 0 0 0 0 0 0 0 0.31 0"/>
      <feBlend in2="BackgroundImageFix" result="effect1_dropShadow"/>
      <feBlend in="SourceGraphic" in2="effect1_dropShadow" result="shape"/>
    </filter>
  </defs>
</svg>
